<svg width="32" height="32" viewBox="0 0 32 32" fill="none" xmlns="http://www.w3.org/2000/svg">
  <rect width="32" height="32" fill="#000000"/>
  <defs>
    <linearGradient id="goldGradient" x1="0%" y1="0%" x2="100%" y2="100%">
      <stop offset="0%" style="stop-color:#FFD700;stop-opacity:1" />
      <stop offset="50%" style="stop-color:#FFA500;stop-opacity:1" />
      <stop offset="100%" style="stop-color:#B8860B;stop-opacity:1" />
    </linearGradient>
  </defs>
  
  <!-- Letra V dorada simplificada -->
  <g transform="translate(16, 12)">
    <!-- Serifa izquierda -->
    <path d="M -6 -2 L -4 -2 L -4 -1 L -5 -1 L -5 6 L -4 6 L -4 7 L -6 7 L -6 6 L -5 6 L -5 -1 L -6 -1 Z" fill="url(#goldGradient)" fill-opacity="0.95"/>
    
    <!-- Serifa derecha -->
    <path d="M 4 -2 L 6 -2 L 6 -1 L 5 -1 L 5 6 L 6 6 L 6 7 L 4 7 L 4 6 L 5 6 L 5 -1 L 4 -1 Z" fill="url(#goldGradient)" fill-opacity="0.95"/>
    
    <!-- Cuerpo principal de la V -->
    <path d="M -4 -2 L 0 4 L 4 -2" stroke="url(#goldGradient)" stroke-width="2" stroke-linecap="round" stroke-linejoin="round" fill="none"/>
  </g>
  
</svg>
