<svg width="512" height="512" viewBox="0 0 512 512" fill="none" xmlns="http://www.w3.org/2000/svg">
  <!-- Fondo negro -->
  <rect width="512" height="512" fill="#000000"/>
  
  <!-- Gradiente dorado para la V -->
  <defs>
    <linearGradient id="goldGradient" x1="0%" y1="0%" x2="100%" y2="100%">
      <stop offset="0%" style="stop-color:#FFD700;stop-opacity:1" />
      <stop offset="30%" style="stop-color:#FFA500;stop-opacity:1" />
      <stop offset="70%" style="stop-color:#B8860B;stop-opacity:1" />
      <stop offset="100%" style="stop-color:#8B7355;stop-opacity:1" />
    </linearGradient>
    
    <!-- Patrón de líneas para efecto brushed metal -->
    <pattern id="brushedPattern" x="0" y="0" width="6" height="6" patternUnits="userSpaceOnUse">
      <rect width="6" height="1" fill="rgba(255,255,255,0.15)"/>
      <rect y="2" width="6" height="1" fill="rgba(255,255,255,0.08)"/>
      <rect y="4" width="6" height="1" fill="rgba(255,255,255,0.05)"/>
    </pattern>
  </defs>
  
  <!-- Letra V dorada con serifas elegantes -->
  <g transform="translate(256, 180)">
    <!-- Serifa izquierda -->
    <path d="M -80 -20 L -60 -20 L -60 -10 L -70 -10 L -70 80 L -60 80 L -60 90 L -80 90 L -80 80 L -70 80 L -70 -10 L -80 -10 Z" 
          fill="url(#goldGradient)" 
          fill-opacity="0.95"/>
    
    <!-- Serifa derecha -->
    <path d="M 60 -20 L 80 -20 L 80 -10 L 70 -10 L 70 80 L 80 80 L 80 90 L 60 90 L 60 80 L 70 80 L 70 -10 L 60 -10 Z" 
          fill="url(#goldGradient)" 
          fill-opacity="0.95"/>
    
    <!-- Cuerpo principal de la V -->
    <path d="M -60 -20 L 0 60 L 60 -20" 
          stroke="url(#goldGradient)" 
          stroke-width="25" 
          stroke-linecap="round" 
          stroke-linejoin="round" 
          fill="none"/>
    
    <!-- Efecto brushed metal sutil -->
    <rect x="-80" y="-20" width="160" height="110" fill="url(#brushedPattern)" opacity="0.2"/>
  </g>
  
</svg>
